<svg xmlns="http://www.w3.org/2000/svg" width="920" height="560">
<rect width="920" height="560" fill="#12131f" rx="8"/>
<line x1="72" y1="504.0" x2="896" y2="504.0" stroke="#2a3a4a" stroke-width="0.8" opacity="0.55"/>
<text x="64" y="508.0" text-anchor="end" fill="#8899aa" font-size="11" font-family="monospace">-40</text>
<line x1="72" y1="451.6" x2="896" y2="451.6" stroke="#2a3a4a" stroke-width="0.8" opacity="0.55"/>
<text x="64" y="455.6" text-anchor="end" fill="#8899aa" font-size="11" font-family="monospace">-35</text>
<line x1="72" y1="399.1" x2="896" y2="399.1" stroke="#2a3a4a" stroke-width="0.8" opacity="0.55"/>
<text x="64" y="403.1" text-anchor="end" fill="#8899aa" font-size="11" font-family="monospace">-30</text>
<line x1="72" y1="346.7" x2="896" y2="346.7" stroke="#2a3a4a" stroke-width="0.8" opacity="0.55"/>
<text x="64" y="350.7" text-anchor="end" fill="#8899aa" font-size="11" font-family="monospace">-25</text>
<line x1="72" y1="294.2" x2="896" y2="294.2" stroke="#2a3a4a" stroke-width="0.8" opacity="0.55"/>
<text x="64" y="298.2" text-anchor="end" fill="#8899aa" font-size="11" font-family="monospace">-20</text>
<line x1="72" y1="241.8" x2="896" y2="241.8" stroke="#2a3a4a" stroke-width="0.8" opacity="0.55"/>
<text x="64" y="245.8" text-anchor="end" fill="#8899aa" font-size="11" font-family="monospace">-15</text>
<line x1="72" y1="189.3" x2="896" y2="189.3" stroke="#2a3a4a" stroke-width="0.8" opacity="0.55"/>
<text x="64" y="193.3" text-anchor="end" fill="#8899aa" font-size="11" font-family="monospace">-10</text>
<line x1="72" y1="136.9" x2="896" y2="136.9" stroke="#2a3a4a" stroke-width="0.8" opacity="0.55"/>
<text x="64" y="140.9" text-anchor="end" fill="#8899aa" font-size="11" font-family="monospace">-5</text>
<line x1="72" y1="84.4" x2="896" y2="84.4" stroke="#ccddee" stroke-width="1.2" opacity="0.55"/>
<text x="64" y="88.4" text-anchor="end" fill="#8899aa" font-size="11" font-family="monospace">0</text>
<line x1="72" y1="32.0" x2="896" y2="32.0" stroke="#2a3a4a" stroke-width="0.8" opacity="0.55"/>
<text x="64" y="36.0" text-anchor="end" fill="#8899aa" font-size="11" font-family="monospace">5</text>
<line x1="72.0" y1="32" x2="72.0" y2="504" stroke="#2a3a4a" stroke-width="0.8" opacity="0.7"/>
<text x="72.0" y="524" text-anchor="middle" fill="#8899aa" font-size="11" font-family="monospace">0</text>
<line x1="175.0" y1="32" x2="175.0" y2="504" stroke="#2a3a4a" stroke-width="0.8" opacity="0.7"/>
<text x="175.0" y="524" text-anchor="middle" fill="#8899aa" font-size="11" font-family="monospace">5</text>
<line x1="278.0" y1="32" x2="278.0" y2="504" stroke="#2a3a4a" stroke-width="0.8" opacity="0.7"/>
<text x="278.0" y="524" text-anchor="middle" fill="#8899aa" font-size="11" font-family="monospace">10</text>
<line x1="381.0" y1="32" x2="381.0" y2="504" stroke="#2a3a4a" stroke-width="0.8" opacity="0.7"/>
<text x="381.0" y="524" text-anchor="middle" fill="#8899aa" font-size="11" font-family="monospace">15</text>
<line x1="484.0" y1="32" x2="484.0" y2="504" stroke="#2a3a4a" stroke-width="0.8" opacity="0.7"/>
<text x="484.0" y="524" text-anchor="middle" fill="#8899aa" font-size="11" font-family="monospace">20</text>
<line x1="587.0" y1="32" x2="587.0" y2="504" stroke="#2a3a4a" stroke-width="0.8" opacity="0.7"/>
<text x="587.0" y="524" text-anchor="middle" fill="#8899aa" font-size="11" font-family="monospace">25</text>
<line x1="690.0" y1="32" x2="690.0" y2="504" stroke="#2a3a4a" stroke-width="0.8" opacity="0.7"/>
<text x="690.0" y="524" text-anchor="middle" fill="#8899aa" font-size="11" font-family="monospace">30</text>
<line x1="793.0" y1="32" x2="793.0" y2="504" stroke="#2a3a4a" stroke-width="0.8" opacity="0.7"/>
<text x="793.0" y="524" text-anchor="middle" fill="#8899aa" font-size="11" font-family="monospace">35</text>
<line x1="896.0" y1="32" x2="896.0" y2="504" stroke="#2a3a4a" stroke-width="0.8" opacity="0.7"/>
<text x="896.0" y="524" text-anchor="middle" fill="#8899aa" font-size="11" font-family="monospace">40</text>
<rect x="453.1" y="32" width="442.9" height="472" fill="#44aaff" opacity="0.05"/>
<line x1="453.1" y1="32" x2="453.1" y2="504" stroke="#ffcc00" stroke-width="1.5" stroke-dasharray="7,4" opacity="0.75"/>
<text x="457.1" y="46" fill="#ffcc00" font-size="10" font-family="monospace">18.5 GHz</text>
<line x1="72" y1="189.3" x2="896" y2="189.3" stroke="#ff6644" stroke-width="1.4" stroke-dasharray="5,3" opacity="0.65"/>
<text x="77" y="184.3" fill="#ff6644" font-size="10" font-family="monospace">−10 dB target</text>
<line x1="72" y1="94.9" x2="896" y2="94.9" stroke="#66dd88" stroke-width="1.2" stroke-dasharray="4,3" opacity="0.5"/>
<text x="77" y="90.9" fill="#66dd88" font-size="10" font-family="monospace">−1 dB</text>
<polyline points="72.0,506.0 73.6,506.0 75.3,506.0 76.9,506.0 78.6,506.0 80.2,506.0 81.9,506.0 83.5,506.0 85.2,506.0 86.8,506.0 88.5,506.0 90.1,506.0 91.8,506.0 93.4,506.0 95.1,506.0 96.7,506.0 98.4,506.0 100.0,506.0 101.7,506.0 103.3,506.0 105.0,506.0 106.6,506.0 108.3,506.0 109.9,506.0 111.6,506.0 113.2,506.0 114.8,506.0 116.5,506.0 118.1,506.0 119.8,506.0 121.4,506.0 123.1,506.0 124.7,506.0 126.4,506.0 128.0,506.0 129.7,506.0 131.3,506.0 133.0,506.0 134.6,506.0 136.3,506.0 137.9,506.0 139.6,506.0 141.2,506.0 142.9,506.0 144.5,506.0 146.2,506.0 147.8,506.0 149.5,506.0 151.1,506.0 152.8,506.0 154.4,506.0 156.0,506.0 157.7,506.0 159.3,506.0 161.0,506.0 162.6,506.0 164.3,506.0 165.9,506.0 167.6,506.0 169.2,506.0 170.9,506.0 172.5,506.0 174.2,506.0 175.8,506.0 177.5,506.0 179.1,506.0 180.8,506.0 182.4,506.0 184.1,506.0 185.7,506.0 187.4,506.0 189.0,506.0 190.7,506.0 192.3,506.0 194.0,506.0 195.6,506.0 197.2,506.0 198.9,506.0 200.5,506.0 202.2,506.0 203.8,506.0 205.5,506.0 207.1,506.0 208.8,506.0 210.4,506.0 212.1,506.0 213.7,506.0 215.4,506.0 217.0,506.0 218.7,506.0 220.3,506.0 222.0,506.0 223.6,506.0 225.3,506.0 226.9,506.0 228.6,506.0 230.2,506.0 231.9,506.0 233.5,506.0 235.2,506.0 236.8,506.0 238.4,506.0 240.1,506.0 241.7,506.0 243.4,506.0 245.0,506.0 246.7,506.0 248.3,506.0 250.0,506.0 251.6,506.0 253.3,506.0 254.9,506.0 256.6,506.0 258.2,506.0 259.9,506.0 261.5,506.0 263.2,506.0 264.8,506.0 266.5,506.0 268.1,506.0 269.8,506.0 271.4,506.0 273.1,506.0 274.7,506.0 276.4,506.0 278.0,506.0 279.6,506.0 281.3,506.0 282.9,506.0 284.6,506.0 286.2,506.0 287.9,506.0 289.5,506.0 291.2,506.0 292.8,506.0 294.5,506.0 296.1,506.0 297.8,506.0 299.4,506.0 301.1,506.0 302.7,506.0 304.4,506.0 306.0,506.0 307.7,506.0 309.3,506.0 311.0,506.0 312.6,506.0 314.3,506.0 315.9,506.0 317.6,506.0 319.2,506.0 320.8,506.0 322.5,506.0 324.1,506.0 325.8,506.0 327.4,506.0 329.1,506.0 330.7,506.0 332.4,506.0 334.0,506.0 335.7,506.0 337.3,506.0 339.0,506.0 340.6,506.0 342.3,506.0 343.9,506.0 345.6,506.0 347.2,506.0 348.9,506.0 350.5,506.0 352.2,506.0 353.8,506.0 355.5,506.0 357.1,506.0 358.8,506.0 360.4,506.0 362.0,506.0 363.7,506.0 365.3,506.0 367.0,506.0 368.6,506.0 370.3,506.0 371.9,506.0 373.6,506.0 375.2,506.0 376.9,506.0 378.5,506.0 380.2,506.0 381.8,506.0 383.5,506.0 385.1,506.0 386.8,506.0 388.4,506.0 390.1,506.0 391.7,506.0 393.4,501.7 395.0,494.3 396.7,486.6 398.3,478.5 400.0,470.0 401.6,461.3 403.2,452.3 404.9,443.1 406.5,433.8 408.2,424.3 409.8,414.7 411.5,405.1 413.1,395.4 414.8,385.7 416.4,375.9 418.1,366.2 419.7,356.4 421.4,346.6 423.0,336.8 424.7,327.1 426.3,317.3 428.0,307.5 429.6,297.7 431.3,287.9 432.9,278.1 434.6,268.3 436.2,258.4 437.9,248.6 439.5,238.7 441.2,228.9 442.8,219.1 444.4,209.3 446.1,199.6 447.7,189.9 449.4,180.5 451.0,171.3 452.7,162.3 454.3,153.8 456.0,145.8 457.6,138.4 459.3,131.8 460.9,125.9 462.6,121.0 464.2,117.0 465.9,113.8 467.5,111.5 469.2,109.8 470.8,108.8 472.5,108.3 474.1,108.1 475.8,108.2 477.4,108.6 479.1,109.0 480.7,109.6 482.4,110.2 484.0,110.8 485.6,111.4 487.3,112.0 488.9,112.6 490.6,113.1 492.2,113.6 493.9,114.1 495.5,114.5 497.2,114.8 498.8,115.2 500.5,115.5 502.1,115.8 503.8,116.0 505.4,116.2 507.1,116.4 508.7,116.6 510.4,116.7 512.0,116.8 513.7,117.0 515.3,117.0 517.0,117.1 518.6,117.2 520.3,117.2 521.9,117.3 523.6,117.3 525.2,117.4 526.8,117.4 528.5,117.4 530.1,117.4 531.8,117.4 533.4,117.4 535.1,117.4 536.7,117.4 538.4,117.3 540.0,117.3 541.7,117.3 543.3,117.3 545.0,117.2 546.6,117.2 548.3,117.1 549.9,117.1 551.6,117.0 553.2,117.0 554.9,116.9 556.5,116.8 558.2,116.7 559.8,116.7 561.5,116.6 563.1,116.5 564.8,116.4 566.4,116.3 568.0,116.2 569.7,116.1 571.3,116.0 573.0,115.8 574.6,115.7 576.3,115.6 577.9,115.4 579.6,115.3 581.2,115.1 582.9,115.0 584.5,114.8 586.2,114.7 587.8,114.5 589.5,114.3 591.1,114.1 592.8,113.9 594.4,113.7 596.1,113.5 597.7,113.3 599.4,113.1 601.0,112.9 602.7,112.7 604.3,112.5 606.0,112.2 607.6,112.0 609.2,111.8 610.9,111.5 612.5,111.3 614.2,111.0 615.8,110.8 617.5,110.5 619.1,110.3 620.8,110.0 622.4,109.7 624.1,109.4 625.7,109.2 627.4,108.9 629.0,108.6 630.7,108.3 632.3,108.0 634.0,107.7 635.6,107.5 637.3,107.2 638.9,106.9 640.6,106.6 642.2,106.3 643.9,106.0 645.5,105.7 647.2,105.4 648.8,105.1 650.4,104.8 652.1,104.4 653.7,104.1 655.4,103.8 657.0,103.5 658.7,103.2 660.3,102.9 662.0,102.6 663.6,102.3 665.3,102.0 666.9,101.7 668.6,101.4 670.2,101.1 671.9,100.8 673.5,100.5 675.2,100.2 676.8,99.9 678.5,99.6 680.1,99.3 681.8,99.0 683.4,98.7 685.1,98.4 686.7,98.1 688.4,97.9 690.0,97.6 691.6,97.3 693.3,97.0 694.9,96.8 696.6,96.5 698.2,96.2 699.9,96.0 701.5,95.7 703.2,95.5 704.8,95.2 706.5,95.0 708.1,94.8 709.8,94.5 711.4,94.3 713.1,94.1 714.7,93.8 716.4,93.6 718.0,93.4 719.7,93.2 721.3,93.0 723.0,92.8 724.6,92.6 726.3,92.4 727.9,92.2 729.6,92.1 731.2,91.9 732.8,91.7 734.5,91.6 736.1,91.4 737.8,91.2 739.4,91.1 741.1,91.0 742.7,90.8 744.4,90.7 746.0,90.6 747.7,90.4 749.3,90.3 751.0,90.2 752.6,90.1 754.3,90.0 755.9,89.9 757.6,89.8 759.2,89.8 760.9,89.7 762.5,89.6 764.2,89.5 765.8,89.5 767.5,89.4 769.1,89.4 770.8,89.3 772.4,89.3 774.0,89.2 775.7,89.2 777.3,89.1 779.0,89.1 780.6,89.1 782.3,89.1 783.9,89.1 785.6,89.0 787.2,89.0 788.9,89.0 790.5,89.0 792.2,89.0 793.8,89.0 795.5,89.0 797.1,89.1 798.8,89.1 800.4,89.1 802.1,89.1 803.7,89.1 805.4,89.2 807.0,89.2 808.7,89.2 810.3,89.3 812.0,89.3 813.6,89.3 815.2,89.4 816.9,89.4 818.5,89.4 820.2,89.5 821.8,89.5 823.5,89.6 825.1,89.6 826.8,89.7 828.4,89.7 830.1,89.8 831.7,89.8 833.4,89.9 835.0,89.9 836.7,89.9 838.3,90.0 840.0,90.0 841.6,90.1 843.3,90.1 844.9,90.2 846.6,90.2 848.2,90.3 849.9,90.3 851.5,90.4 853.2,90.4 854.8,90.4 856.4,90.5 858.1,90.5 859.7,90.5 861.4,90.6 863.0,90.6 864.7,90.6 866.3,90.6 868.0,90.7 869.6,90.7 871.3,90.7 872.9,90.7 874.6,90.7 876.2,90.7 877.9,90.8 879.5,90.8 881.2,90.8 882.8,90.8 884.5,90.8 886.1,90.7 887.8,90.7 889.4,90.7 891.1,90.7 892.7,90.7 894.4,90.7 896.0,90.6" fill="none" stroke="#4db8ff" stroke-width="2.8"/>
<polyline points="72.0,84.5 73.6,84.5 75.3,84.5 76.9,84.6 78.6,84.6 80.2,84.6 81.9,84.7 83.5,84.7 85.2,84.8 86.8,84.8 88.5,84.9 90.1,85.0 91.8,85.0 93.4,85.1 95.1,85.2 96.7,85.3 98.4,85.4 100.0,85.5 101.7,85.6 103.3,85.7 105.0,85.8 106.6,85.9 108.3,86.0 109.9,86.1 111.6,86.3 113.2,86.4 114.8,86.5 116.5,86.6 118.1,86.8 119.8,86.9 121.4,87.1 123.1,87.2 124.7,87.4 126.4,87.5 128.0,87.7 129.7,87.8 131.3,88.0 133.0,88.1 134.6,88.3 136.3,88.5 137.9,88.6 139.6,88.8 141.2,89.0 142.9,89.1 144.5,89.3 146.2,89.5 147.8,89.6 149.5,89.8 151.1,89.9 152.8,90.1 154.4,90.3 156.0,90.4 157.7,90.6 159.3,90.7 161.0,90.9 162.6,91.1 164.3,91.2 165.9,91.4 167.6,91.5 169.2,91.7 170.9,91.8 172.5,92.0 174.2,92.1 175.8,92.2 177.5,92.4 179.1,92.5 180.8,92.6 182.4,92.8 184.1,92.9 185.7,93.0 187.4,93.1 189.0,93.2 190.7,93.3 192.3,93.4 194.0,93.5 195.6,93.6 197.2,93.7 198.9,93.8 200.5,93.8 202.2,93.9 203.8,94.0 205.5,94.1 207.1,94.1 208.8,94.2 210.4,94.2 212.1,94.2 213.7,94.3 215.4,94.3 217.0,94.3 218.7,94.3 220.3,94.4 222.0,94.4 223.6,94.4 225.3,94.4 226.9,94.3 228.6,94.3 230.2,94.3 231.9,94.3 233.5,94.2 235.2,94.2 236.8,94.1 238.4,94.1 240.1,94.0 241.7,93.9 243.4,93.9 245.0,93.8 246.7,93.7 248.3,93.6 250.0,93.5 251.6,93.4 253.3,93.3 254.9,93.2 256.6,93.0 258.2,92.9 259.9,92.8 261.5,92.6 263.2,92.5 264.8,92.3 266.5,92.2 268.1,92.0 269.8,91.8 271.4,91.7 273.1,91.5 274.7,91.3 276.4,91.1 278.0,91.0 279.6,90.8 281.3,90.6 282.9,90.4 284.6,90.2 286.2,90.0 287.9,89.8 289.5,89.6 291.2,89.4 292.8,89.2 294.5,89.0 296.1,88.8 297.8,88.6 299.4,88.4 301.1,88.2 302.7,88.0 304.4,87.9 306.0,87.7 307.7,87.5 309.3,87.4 311.0,87.2 312.6,87.0 314.3,86.9 315.9,86.8 317.6,86.6 319.2,86.5 320.8,86.4 322.5,86.3 324.1,86.3 325.8,86.2 327.4,86.2 329.1,86.1 330.7,86.1 332.4,86.1 334.0,86.1 335.7,86.2 337.3,86.2 339.0,86.3 340.6,86.4 342.3,86.5 343.9,86.6 345.6,86.8 347.2,87.0 348.9,87.2 350.5,87.4 352.2,87.7 353.8,87.9 355.5,88.2 357.1,88.6 358.8,88.9 360.4,89.3 362.0,89.7 363.7,90.1 365.3,90.5 367.0,91.0 368.6,91.5 370.3,92.0 371.9,92.6 373.6,93.1 375.2,93.7 376.9,94.3 378.5,95.0 380.2,95.6 381.8,96.3 383.5,97.0 385.1,97.7 386.8,98.4 388.4,99.1 390.1,99.9 391.7,100.7 393.4,101.4 395.0,102.2 396.7,103.0 398.3,103.9 400.0,104.7 401.6,105.6 403.2,106.4 404.9,107.3 406.5,108.2 408.2,109.1 409.8,110.0 411.5,110.9 413.1,111.8 414.8,112.7 416.4,113.6 418.1,114.6 419.7,115.5 421.4,116.5 423.0,117.5 424.7,118.5 426.3,119.5 428.0,120.6 429.6,121.6 431.3,122.8 432.9,123.9 434.6,125.1 436.2,126.4 437.9,127.8 439.5,129.2 441.2,130.8 442.8,132.6 444.4,134.6 446.1,136.8 447.7,139.4 449.4,142.4 451.0,145.9 452.7,150.1 454.3,155.1 456.0,161.0 457.6,168.1 459.3,176.5 460.9,186.3 462.6,197.6 464.2,210.3 465.9,224.2 467.5,238.6 469.2,252.4 470.8,263.8 472.5,271.0 474.1,273.3 475.8,271.6 477.4,267.7 479.1,262.9 480.7,258.2 482.4,253.9 484.0,250.2 485.6,247.2 487.3,244.7 488.9,242.8 490.6,241.3 492.2,240.3 493.9,239.7 495.5,239.4 497.2,239.3 498.8,239.6 500.5,240.0 502.1,240.7 503.8,241.5 505.4,242.6 507.1,243.7 508.7,245.0 510.4,246.5 512.0,248.0 513.7,249.7 515.3,251.4 517.0,253.3 518.6,255.2 520.3,257.2 521.9,259.3 523.6,261.5 525.2,263.7 526.8,266.0 528.5,268.4 530.1,270.8 531.8,273.2 533.4,275.7 535.1,278.3 536.7,280.9 538.4,283.6 540.0,286.3 541.7,289.0 543.3,291.8 545.0,294.6 546.6,297.4 548.3,300.3 549.9,303.2 551.6,306.1 553.2,309.1 554.9,312.1 556.5,315.1 558.2,318.2 559.8,321.2 561.5,324.3 563.1,327.5 564.8,330.6 566.4,333.8 568.0,337.0 569.7,340.2 571.3,343.4 573.0,346.7 574.6,350.0 576.3,353.3 577.9,356.6 579.6,359.9 581.2,363.3 582.9,366.7 584.5,370.1 586.2,373.5 587.8,376.9 589.5,380.3 591.1,383.8 592.8,387.3 594.4,390.8 596.1,394.3 597.7,397.8 599.4,401.3 601.0,404.8 602.7,408.4 604.3,411.9 606.0,415.4 607.6,419.0 609.2,422.5 610.9,426.1 612.5,429.6 614.2,433.1 615.8,436.7 617.5,440.2 619.1,443.6 620.8,447.1 622.4,450.5 624.1,453.8 625.7,457.1 627.4,460.4 629.0,463.6 630.7,466.7 632.3,469.8 634.0,472.7 635.6,475.6 637.3,478.3 638.9,481.0 640.6,483.5 642.2,485.9 643.9,488.2 645.5,490.3 647.2,492.2 648.8,494.0 650.4,495.7 652.1,497.2 653.7,498.6 655.4,499.8 657.0,500.9 658.7,501.8 660.3,502.6 662.0,503.3 663.6,503.9 665.3,504.3 666.9,504.7 668.6,504.9 670.2,505.1 671.9,505.2 673.5,505.2 675.2,505.2 676.8,505.1 678.5,505.0 680.1,504.8 681.8,504.6 683.4,504.4 685.1,504.2 686.7,504.0 688.4,503.7 690.0,503.5 691.6,503.2 693.3,502.9 694.9,502.7 696.6,502.5 698.2,502.2 699.9,502.0 701.5,501.8 703.2,501.6 704.8,501.4 706.5,501.2 708.1,501.1 709.8,501.0 711.4,500.8 713.1,500.8 714.7,500.7 716.4,500.6 718.0,500.6 719.7,500.6 721.3,500.6 723.0,500.6 724.6,500.7 726.3,500.7 727.9,500.8 729.6,500.9 731.2,501.1 732.8,501.2 734.5,501.4 736.1,501.6 737.8,501.8 739.4,502.0 741.1,502.3 742.7,502.5 744.4,502.8 746.0,503.1 747.7,503.4 749.3,503.8 751.0,504.1 752.6,504.5 754.3,504.8 755.9,505.2 757.6,505.6 759.2,506.0 760.9,506.0 762.5,506.0 764.2,506.0 765.8,506.0 767.5,506.0 769.1,506.0 770.8,506.0 772.4,506.0 774.0,506.0 775.7,506.0 777.3,506.0 779.0,506.0 780.6,506.0 782.3,506.0 783.9,506.0 785.6,506.0 787.2,506.0 788.9,506.0 790.5,506.0 792.2,506.0 793.8,506.0 795.5,506.0 797.1,506.0 798.8,506.0 800.4,506.0 802.1,506.0 803.7,506.0 805.4,506.0 807.0,506.0 808.7,506.0 810.3,506.0 812.0,506.0 813.6,506.0 815.2,506.0 816.9,506.0 818.5,506.0 820.2,506.0 821.8,506.0 823.5,506.0 825.1,506.0 826.8,506.0 828.4,506.0 830.1,506.0 831.7,506.0 833.4,506.0 835.0,506.0 836.7,506.0 838.3,506.0 840.0,506.0 841.6,506.0 843.3,506.0 844.9,506.0 846.6,506.0 848.2,506.0 849.9,506.0 851.5,506.0 853.2,506.0 854.8,506.0 856.4,506.0 858.1,506.0 859.7,506.0 861.4,506.0 863.0,506.0 864.7,506.0 866.3,506.0 868.0,506.0 869.6,506.0 871.3,506.0 872.9,506.0 874.6,506.0 876.2,506.0 877.9,506.0 879.5,506.0 881.2,506.0 882.8,506.0 884.5,506.0 886.1,506.0 887.8,506.0 889.4,506.0 891.1,506.0 892.7,506.0 894.4,506.0 896.0,506.0" fill="none" stroke="#ff4477" stroke-width="2.8"/>
<polyline points="72.0,506.0 73.6,503.3 75.3,456.8 76.9,423.9 78.6,399.1 80.2,379.5 81.9,363.2 83.5,349.4 85.2,337.5 86.8,326.9 88.5,317.4 90.1,308.9 91.8,301.1 93.4,294.0 95.1,287.4 96.7,281.3 98.4,275.6 100.0,270.3 101.7,265.3 103.3,260.6 105.0,256.2 106.6,252.0 108.3,248.0 109.9,244.2 111.6,240.6 113.2,237.2 114.8,234.0 116.5,230.8 118.1,227.9 119.8,225.0 121.4,222.3 123.1,219.7 124.7,217.2 126.4,214.8 128.0,212.5 129.7,210.2 131.3,208.1 133.0,206.0 134.6,204.1 136.3,202.2 137.9,200.3 139.6,198.6 141.2,196.9 142.9,195.2 144.5,193.6 146.2,192.1 147.8,190.6 149.5,189.2 151.1,187.9 152.8,186.5 154.4,185.3 156.0,184.0 157.7,182.9 159.3,181.7 161.0,180.6 162.6,179.6 164.3,178.6 165.9,177.6 167.6,176.7 169.2,175.8 170.9,174.9 172.5,174.1 174.2,173.3 175.8,172.5 177.5,171.8 179.1,171.1 180.8,170.4 182.4,169.8 184.1,169.2 185.7,168.6 187.4,168.0 189.0,167.5 190.7,167.0 192.3,166.6 194.0,166.1 195.6,165.7 197.2,165.4 198.9,165.0 200.5,164.7 202.2,164.4 203.8,164.1 205.5,163.9 207.1,163.6 208.8,163.4 210.4,163.3 212.1,163.1 213.7,163.0 215.4,162.9 217.0,162.9 218.7,162.8 220.3,162.8 222.0,162.9 223.6,162.9 225.3,163.0 226.9,163.1 228.6,163.2 230.2,163.4 231.9,163.6 233.5,163.8 235.2,164.1 236.8,164.3 238.4,164.7 240.1,165.0 241.7,165.4 243.4,165.8 245.0,166.3 246.7,166.8 248.3,167.3 250.0,167.9 251.6,168.5 253.3,169.1 254.9,169.8 256.6,170.6 258.2,171.4 259.9,172.2 261.5,173.1 263.2,174.0 264.8,175.0 266.5,176.1 268.1,177.2 269.8,178.4 271.4,179.6 273.1,181.0 274.7,182.3 276.4,183.8 278.0,185.4 279.6,187.0 281.3,188.7 282.9,190.6 284.6,192.5 286.2,194.6 287.9,196.7 289.5,199.0 291.2,201.5 292.8,204.1 294.5,206.8 296.1,209.7 297.8,212.8 299.4,216.2 301.1,219.7 302.7,223.5 304.4,227.6 306.0,232.0 307.7,236.7 309.3,241.8 311.0,247.4 312.6,253.5 314.3,260.2 315.9,267.5 317.6,275.7 319.2,285.0 320.8,295.4 322.5,307.5 324.1,321.8 325.8,339.0 327.4,360.5 329.1,389.1 330.7,431.1 332.4,502.6 334.0,506.0 335.7,435.3 337.3,389.9 339.0,359.0 340.6,335.7 342.3,316.9 343.9,301.2 345.6,287.8 347.2,276.0 348.9,265.4 350.5,256.0 352.2,247.4 353.8,239.5 355.5,232.3 357.1,225.6 358.8,219.4 360.4,213.6 362.0,208.1 363.7,203.0 365.3,198.2 367.0,193.6 368.6,189.3 370.3,185.3 371.9,181.4 373.6,177.8 375.2,174.3 376.9,171.0 378.5,167.9 380.2,164.9 381.8,162.1 383.5,159.4 385.1,156.8 386.8,154.3 388.4,152.0 390.1,149.7 391.7,147.6 393.4,145.6 395.0,143.6 396.7,141.8 398.3,140.0 400.0,138.3 401.6,136.7 403.2,135.1 404.9,133.7 406.5,132.3 408.2,130.9 409.8,129.7 411.5,128.5 413.1,127.3 414.8,126.2 416.4,125.2 418.1,124.2 419.7,123.3 421.4,122.5 423.0,121.7 424.7,121.0 426.3,120.3 428.0,119.8 429.6,119.3 431.3,118.8 432.9,118.5 434.6,118.3 436.2,118.1 437.9,118.1 439.5,118.3 441.2,118.7 442.8,119.2 444.4,120.1 446.1,121.2 447.7,122.8 449.4,124.8 451.0,127.3 452.7,130.5 454.3,134.5 456.0,139.3 457.6,145.0 459.3,151.5 460.9,158.8 462.6,166.2 464.2,173.2 465.9,178.8 467.5,182.3 469.2,183.1 470.8,181.5 472.5,178.3 474.1,174.1 475.8,169.6 477.4,165.1 479.1,160.9 480.7,157.1 482.4,153.6 484.0,150.6 485.6,147.8 487.3,145.4 488.9,143.2 490.6,141.3 492.2,139.6 493.9,138.1 495.5,136.7 497.2,135.4 498.8,134.3 500.5,133.3 502.1,132.4 503.8,131.6 505.4,130.8 507.1,130.1 508.7,129.5 510.4,128.9 512.0,128.3 513.7,127.8 515.3,127.4 517.0,126.9 518.6,126.5 520.3,126.2 521.9,125.8 523.6,125.5 525.2,125.2 526.8,124.9 528.5,124.6 530.1,124.4 531.8,124.2 533.4,124.0 535.1,123.8 536.7,123.6 538.4,123.4 540.0,123.3 541.7,123.1 543.3,123.0 545.0,122.9 546.6,122.8 548.3,122.7 549.9,122.7 551.6,122.6 553.2,122.5 554.9,122.5 556.5,122.5 558.2,122.4 559.8,122.4 561.5,122.4 563.1,122.4 564.8,122.5 566.4,122.5 568.0,122.5 569.7,122.6 571.3,122.7 573.0,122.7 574.6,122.8 576.3,122.9 577.9,123.0 579.6,123.1 581.2,123.3 582.9,123.4 584.5,123.5 586.2,123.7 587.8,123.9 589.5,124.0 591.1,124.2 592.8,124.4 594.4,124.6 596.1,124.9 597.7,125.1 599.4,125.3 601.0,125.6 602.7,125.8 604.3,126.1 606.0,126.4 607.6,126.7 609.2,127.0 610.9,127.3 612.5,127.7 614.2,128.0 615.8,128.4 617.5,128.7 619.1,129.1 620.8,129.5 622.4,129.9 624.1,130.3 625.7,130.8 627.4,131.2 629.0,131.7 630.7,132.1 632.3,132.6 634.0,133.1 635.6,133.6 637.3,134.1 638.9,134.7 640.6,135.2 642.2,135.8 643.9,136.4 645.5,137.0 647.2,137.6 648.8,138.2 650.4,138.8 652.1,139.5 653.7,140.2 655.4,140.9 657.0,141.6 658.7,142.3 660.3,143.0 662.0,143.8 663.6,144.5 665.3,145.3 666.9,146.1 668.6,147.0 670.2,147.8 671.9,148.7 673.5,149.5 675.2,150.4 676.8,151.3 678.5,152.3 680.1,153.2 681.8,154.2 683.4,155.2 685.1,156.2 686.7,157.2 688.4,158.3 690.0,159.3 691.6,160.4 693.3,161.5 694.9,162.6 696.6,163.8 698.2,164.9 699.9,166.1 701.5,167.3 703.2,168.6 704.8,169.8 706.5,171.1 708.1,172.3 709.8,173.6 711.4,175.0 713.1,176.3 714.7,177.7 716.4,179.1 718.0,180.5 719.7,181.9 721.3,183.3 723.0,184.8 724.6,186.2 726.3,187.7 727.9,189.2 729.6,190.7 731.2,192.2 732.8,193.7 734.5,195.3 736.1,196.8 737.8,198.4 739.4,199.9 741.1,201.5 742.7,203.1 744.4,204.6 746.0,206.2 747.7,207.7 749.3,209.2 751.0,210.7 752.6,212.2 754.3,213.7 755.9,215.1 757.6,216.5 759.2,217.9 760.9,219.2 762.5,220.5 764.2,221.7 765.8,222.9 767.5,224.0 769.1,225.0 770.8,226.0 772.4,226.9 774.0,227.7 775.7,228.4 777.3,229.1 779.0,229.6 780.6,230.1 782.3,230.5 783.9,230.7 785.6,230.9 787.2,231.0 788.9,231.0 790.5,230.9 792.2,230.7 793.8,230.5 795.5,230.2 797.1,229.7 798.8,229.3 800.4,228.7 802.1,228.2 803.7,227.5 805.4,226.8 807.0,226.1 808.7,225.3 810.3,224.5 812.0,223.7 813.6,222.9 815.2,222.1 816.9,221.2 818.5,220.3 820.2,219.5 821.8,218.6 823.5,217.8 825.1,216.9 826.8,216.1 828.4,215.3 830.1,214.5 831.7,213.7 833.4,213.0 835.0,212.3 836.7,211.6 838.3,210.9 840.0,210.2 841.6,209.6 843.3,209.0 844.9,208.5 846.6,208.0 848.2,207.5 849.9,207.0 851.5,206.6 853.2,206.2 854.8,205.8 856.4,205.5 858.1,205.2 859.7,205.0 861.4,204.7 863.0,204.5 864.7,204.4 866.3,204.2 868.0,204.1 869.6,204.0 871.3,204.0 872.9,204.0 874.6,204.0 876.2,204.1 877.9,204.1 879.5,204.2 881.2,204.3 882.8,204.5 884.5,204.7 886.1,204.9 887.8,205.1 889.4,205.4 891.1,205.6 892.7,205.9 894.4,206.2 896.0,206.6" fill="none" stroke="#55ee99" stroke-width="1.8" stroke-dasharray="5,3"/>
<circle cx="454.2" cy="197.7" r="5" fill="none" stroke="#ffdd44" stroke-width="1.5"/>
<text x="462.2" y="201.7" fill="#ffdd44" font-size="10" font-family="monospace">× 18.552 GHz, −10.8 dB</text>
<rect x="72" y="32" width="824" height="472" fill="none" stroke="#445566" stroke-width="1.2"/>
<rect x="80" y="34" width="160" height="70" rx="4" fill="#1e2535" opacity="0.85"/>
<line x1="86" y1="48" x2="110" y2="48" stroke="#4db8ff" stroke-width="2"/>
<text x="116" y="52" fill="#4db8ff" font-size="11" font-family="sans-serif">S21 — HPF passband</text>
<line x1="86" y1="70" x2="110" y2="70" stroke="#ff4477" stroke-width="2"/>
<text x="116" y="74" fill="#ff4477" font-size="11" font-family="sans-serif">S31 — LPF arm</text>
<line x1="86" y1="92" x2="110" y2="92" stroke="#55ee99" stroke-width="2" stroke-dasharray="5,2"/>
<text x="116" y="96" fill="#55ee99" font-size="11" font-family="sans-serif">S11 — return loss</text>
<rect x="666" y="34" width="228" height="106" rx="4" fill="#1e2535" opacity="0.85"/>
<text x="888" y="48" text-anchor="end" fill="#ffee66" font-size="13" font-family="monospace" font-weight="bold">r27_c1y022  ·  Final Best</text>
<text x="888" y="64" text-anchor="end" fill="#aaddff" font-size="11" font-family="monospace" font-weight="normal">Cross  = 18.552 GHz  ✓</text>
<text x="888" y="80" text-anchor="end" fill="#aaddff" font-size="11" font-family="monospace" font-weight="normal">S31@19 = −10.8 dB   ✓</text>
<text x="888" y="96" text-anchor="end" fill="#aaddff" font-size="11" font-family="monospace" font-weight="normal">S31@20 = −15.8 dB   ✓</text>
<text x="888" y="112" text-anchor="end" fill="#aaddff" font-size="11" font-family="monospace" font-weight="normal">Ripple(20–25 GHz) = 0.6 dB ✓</text>
<text x="888" y="128" text-anchor="end" fill="#aaddff" font-size="11" font-family="monospace" font-weight="normal">IL(20+ GHz) = −3.1 dB</text>
<text x="484" y="552" text-anchor="middle" fill="#8899aa" font-size="12" font-family="sans-serif">Frequency (GHz)</text>
<text x="16" y="268" text-anchor="middle" fill="#8899aa" font-size="12" font-family="sans-serif" transform="rotate(-90,16,268)">S-Parameters (dB)</text>
<text x="460" y="22" text-anchor="middle" fill="#ddeeff" font-size="14" font-family="sans-serif" font-weight="bold">Diplexer HPF Refinement — Best Configuration (r27_c1y022)</text>
</svg>